<svg xmlns="http://www.w3.org/2000/svg" viewBox="5 5 90 90" width="120" height="120">
  <defs>
    <linearGradient id="g" x1="0%" y1="0%" x2="100%" y2="100%">
      <stop offset="0%" stop-color="#ffd54f"/>
      <stop offset="40%" stop-color="#f09000"/>
      <stop offset="100%" stop-color="#c06a00"/>
    </linearGradient>
  </defs>
  <path d="M 50.00,25.20 L 49.96,25.24 L 49.91,25.29 L 49.86,25.33 L 49.81,25.36 L 49.76,25.40 L 49.70,25.44 L 49.64,25.47 L 49.58,25.50 L 49.51,25.52 L 49.44,25.55 L 49.37,25.57 L 49.30,25.59 L 49.23,25.60 L 49.15,25.61 L 49.07,25.62 L 49.00,25.63 L 48.92,25.63 L 48.83,25.63 L 48.75,25.62 L 48.67,25.61 L 48.58,25.60 L 48.50,25.58 L 48.41,25.56 L 48.33,25.53 L 48.24,25.50 L 48.16,25.47 L 48.07,25.43 L 47.99,25.39 L 47.90,25.34 L 47.82,25.29 L 47.74,25.24 L 47.65,25.18 L 47.57,25.11 L 47.50,25.05 L 47.42,24.97 L 47.35,24.90 L 47.27,24.82 L 47.20,24.74 L 47.14,24.65 L 47.07,24.56 L 47.01,24.46 L 46.95,24.37 L 46.90,24.26 L 46.85,24.16 L 46.80,24.05 L 46.75,23.94 L 46.71,23.82 L 46.68,23.71 L 46.64,23.59 L 46.62,23.46 L 46.59,23.34 L 46.58,23.21 L 46.56,23.08 L 46.55,22.95 L 46.55,22.82 L 46.55,22.68 L 46.56,22.55 L 46.57,22.41 L 46.59,22.27 L 46.61,22.14 L 46.64,22.00 L 46.67,21.86 L 46.71,21.72 L 46.76,21.58 L 46.81,21.44 L 46.86,21.30 L 46.92,21.17 L 46.99,21.03 L 47.07,20.90 L 47.15,20.76 L 47.23,20.63 L 47.32,20.50 L 47.42,20.38 L 47.52,20.25 L 47.63,20.13 L 47.74,20.01 L 47.86,19.90 L 47.98,19.79 L 48.11,19.68 L 48.25,19.57 L 48.39,19.47 L 48.53,19.38 L 48.68,19.29 L 48.83,19.20 L 48.99,19.12 L 49.15,19.05 L 49.32,18.97 L 49.49,18.91 L 49.66,18.85 L 49.84,18.80 L 50.02,18.75 L 50.20,18.71 L 50.39,18.68 L 50.57,18.65 L 50.76,18.63 L 50.96,18.61 L 51.15,18.61 L 51.35,18.61 L 51.55,18.61 L 51.75,18.63 L 51.95,18.65 L 52.15,18.68 L 52.35,18.71 L 52.55,18.76 L 52.75,18.81 L 52.95,18.87 L 53.15,18.94 L 53.34,19.01 L 53.54,19.09 L 53.74,19.18 L 53.93,19.28 L 54.12,19.39 L 54.31,19.50 L 54.49,19.62 L 54.67,19.75 L 54.85,19.88 L 55.02,20.03 L 55.20,20.18 L 55.36,20.33 L 55.52,20.50 L 55.68,20.67 L 55.83,20.84 L 55.97,21.03 L 56.11,21.22 L 56.25,21.41 L 56.38,21.61 L 56.50,21.82 L 56.61,22.03 L 56.72,22.25 L 56.82,22.48 L 56.91,22.70 L 56.99,22.94 L 57.07,23.17 L 57.14,23.42 L 57.20,23.66 L 57.25,23.91 L 57.29,24.16 L 57.33,24.41 L 57.35,24.67 L 57.37,24.93 L 57.38,25.19 L 57.38,25.46 L 57.37,25.72 L 57.34,25.98 L 57.31,26.25 L 57.27,26.52 L 57.22,26.78 L 57.16,27.05 L 57.10,27.31 L 57.02,27.58 L 56.93,27.84 L 56.83,28.10 L 56.72,28.35 L 56.60,28.61 L 56.48,28.86 L 56.34,29.11 L 56.19,29.36 L 56.04,29.60 L 55.87,29.83 L 55.70,30.07 L 55.51,30.29 L 55.32,30.51 L 55.12,30.73 L 54.91,30.94 L 54.69,31.14 L 54.46,31.34 L 54.23,31.52 L 53.99,31.71 L 53.74,31.88 L 53.48,32.04 L 53.22,32.20 L 52.95,32.35 L 52.67,32.49 L 52.39,32.62 L 52.10,32.74 L 51.80,32.85 L 51.50,32.95 L 51.20,33.04 L 50.89,33.12 L 50.58,33.19 L 50.26,33.25 L 49.94,33.30 L 49.62,33.34 L 49.29,33.36 L 48.96,33.38 L 48.64,33.38 L 48.30,33.37 L 47.97,33.35 L 47.64,33.32 L 47.31,33.27 L 46.97,33.22 L 46.64,33.15 L 46.31,33.07 L 45.98,32.97 L 45.65,32.87 L 45.33,32.75 L 45.01,32.63 L 44.69,32.49 L 44.37,32.33 L 44.06,32.17 L 43.76,32.00 L 43.46,31.81 L 43.16,31.61 L 42.87,31.40 L 42.59,31.18 L 42.31,30.95 L 42.04,30.71 L 41.78,30.46 L 41.52,30.20 L 41.28,29.93 L 41.04,29.65 L 40.81,29.36 L 40.59,29.06 L 40.39,28.75 L 40.19,28.43 L 40.00,28.11 L 39.82,27.77 L 39.65,27.43 L 39.50,27.09 L 39.36,26.73 L 39.22,26.37 L 39.10,26.01 L 39.00,25.64 L 38.90,25.26 L 38.82,24.88 L 38.75,24.49 L 38.70,24.11 L 38.66,23.71 L 38.63,23.32 L 38.62,22.92 L 38.62,22.53 L 38.63,22.13 L 38.66,21.73 L 38.70,21.32 L 38.76,20.92 L 38.83,20.52 L 38.91,20.13 L 39.01,19.73 L 39.12,19.33 L 39.25,18.94 L 39.39,18.55 L 39.55,18.17 L 39.72,17.79 L 39.90,17.41 L 40.10,17.04 L 40.31,16.68 L 40.53,16.32 L 40.77,15.97 L 41.02,15.62 L 41.28,15.28 L 41.56,14.96 L 41.85,14.64 L 42.15,14.33 L 42.46,14.03 L 42.79,13.73 L 43.12,13.45 L 43.47,13.18 L 43.82,12.93 L 44.19,12.68 L 44.56,12.45 L 44.95,12.22 L 45.34,12.01 L 45.74,11.82 L 46.15,11.64 L 46.57,11.47 L 47.00,11.31 L 47.43,11.17 L 47.87,11.05 L 48.31,10.94 L 48.76,10.84 L 49.21,10.76 L 49.67,10.70 L 50.13,10.65 L 50.59,10.62 L 51.05,10.60 L 51.52,10.60 L 51.99,10.62 L 52.46,10.65 L 52.93,10.70 L 53.40,10.77 L 53.86,10.85 L 54.33,10.95 L 54.79,11.07 L 55.26,11.20 L 55.71,11.35 L 56.17,11.51 L 56.62,11.69 L 57.06,11.89 L 57.50,12.10 L 57.93,12.33 L 58.35,12.58 L 58.77,12.84 L 59.18,13.12 L 59.58,13.41 L 59.97,13.71 L 60.35,14.03 L 60.72,14.36 L 61.08,14.71 L 61.43,15.07 L 61.77,15.45 L 62.10,15.83 L 62.41,16.23 L 62.71,16.64 L 62.99,17.07 L 63.27,17.50 L 63.52,17.95 L 63.77,18.40 L 63.99,18.86 L 64.20,19.34 L 64.40,19.82 L 64.58,20.31 L 64.74,20.80 L 64.89,21.31 L 65.01,21.81 L 65.13,22.33 L 65.22,22.85 L 65.29,23.38 L 65.35,23.90 L 65.39,24.44 L 65.41,24.97 L 65.41,25.51 L 65.39,26.04 L 65.36,26.58 L 65.30,27.12 L 65.23,27.66 L 65.14,28.19 L 65.03,28.73 L 64.90,29.26 L 64.75,29.78 L 64.58,30.31 L 64.39,30.83 L 64.19,31.34 L 63.96,31.85 L 63.72,32.35 L 63.46,32.84 L 63.19,33.33 L 62.89,33.81 L 62.58,34.27 L 62.25,34.73 L 61.90,35.18 L 61.54,35.61 L 61.16,36.04 L 60.77,36.45 L 60.36,36.85 L 59.94,37.24 L 59.50,37.61 L 59.05,37.97 L 58.58,38.31 L 58.11,38.64 L 57.62,38.95 L 57.11,39.24 L 56.60,39.52 L 56.08,39.78 L 55.54,40.02 L 55.00,40.25 L 54.45,40.45 L 53.88,40.64 L 53.32,40.81 L 52.74,40.96 L 52.16,41.08 L 51.57,41.19 L 50.98,41.28 L 50.38,41.35 L 49.78,41.40 L 49.18,41.42 L 48.57,41.43 L 47.97,41.41 L 47.36,41.38 L 46.75,41.32 L 46.15,41.24 L 45.54,41.14 L 44.94,41.02 L 44.34,40.87 L 43.75,40.71 L 43.15,40.53 L 42.57,40.32 L 41.99,40.09 L 41.42,39.85 L 40.85,39.58 L 40.30,39.29 L 39.75,38.98 L 39.21,38.66 L 38.68,38.31 L 38.17,37.94 L 37.66,37.56 L 37.17,37.16 L 36.69,36.74 L 36.23,36.30 L 35.77,35.84 L 35.34,35.37 L 34.92,34.89 L 34.51,34.38 L 34.13,33.86 L 33.76,33.33 L 33.41,32.79 L 33.07,32.23 L 32.76,31.66 L 32.46,31.07 L 32.19,30.48 L 31.93,29.87" fill="none" stroke="url(#g)" stroke-width="4.8" stroke-linecap="round" stroke-linejoin="round"/>
  <path d="M 25.96,63.40 L 25.94,63.34 L 25.93,63.28 L 25.92,63.22 L 25.91,63.15 L 25.91,63.09 L 25.91,63.02 L 25.91,62.95 L 25.92,62.88 L 25.93,62.81 L 25.94,62.74 L 25.95,62.67 L 25.97,62.60 L 26.00,62.53 L 26.03,62.46 L 26.06,62.39 L 26.09,62.32 L 26.13,62.25 L 26.17,62.18 L 26.22,62.11 L 26.27,62.04 L 26.33,61.97 L 26.38,61.91 L 26.44,61.85 L 26.51,61.79 L 26.58,61.73 L 26.65,61.67 L 26.73,61.61 L 26.81,61.56 L 26.89,61.51 L 26.97,61.47 L 27.06,61.42 L 27.15,61.38 L 27.25,61.34 L 27.35,61.31 L 27.45,61.28 L 27.55,61.25 L 27.65,61.23 L 27.76,61.21 L 27.87,61.20 L 27.98,61.19 L 28.09,61.18 L 28.21,61.18 L 28.32,61.18 L 28.44,61.19 L 28.56,61.20 L 28.68,61.22 L 28.80,61.24 L 28.92,61.27 L 29.04,61.30 L 29.16,61.34 L 29.28,61.38 L 29.39,61.43 L 29.51,61.48 L 29.63,61.54 L 29.75,61.60 L 29.86,61.67 L 29.98,61.74 L 30.09,61.82 L 30.20,61.91 L 30.31,62.00 L 30.42,62.09 L 30.52,62.19 L 30.62,62.29 L 30.72,62.40 L 30.81,62.51 L 30.90,62.63 L 30.99,62.75 L 31.08,62.88 L 31.15,63.01 L 31.23,63.15 L 31.30,63.29 L 31.37,63.43 L 31.43,63.58 L 31.48,63.73 L 31.54,63.88 L 31.58,64.04 L 31.62,64.20 L 31.66,64.36 L 31.69,64.53 L 31.71,64.70 L 31.73,64.87 L 31.74,65.04 L 31.74,65.21 L 31.74,65.39 L 31.73,65.56 L 31.72,65.74 L 31.69,65.92 L 31.66,66.10 L 31.63,66.28 L 31.59,66.46 L 31.54,66.64 L 31.48,66.82 L 31.42,67.00 L 31.35,67.17 L 31.27,67.35 L 31.19,67.52 L 31.10,67.70 L 31.00,67.87 L 30.89,68.03 L 30.78,68.20 L 30.66,68.36 L 30.54,68.52 L 30.40,68.68 L 30.27,68.83 L 30.12,68.97 L 29.97,69.12 L 29.81,69.26 L 29.65,69.39 L 29.48,69.52 L 29.30,69.64 L 29.12,69.76 L 28.94,69.87 L 28.74,69.98 L 28.55,70.08 L 28.35,70.17 L 28.14,70.26 L 27.93,70.34 L 27.71,70.41 L 27.50,70.48 L 27.27,70.53 L 27.05,70.58 L 26.82,70.63 L 26.59,70.66 L 26.35,70.69 L 26.12,70.70 L 25.88,70.71 L 25.64,70.71 L 25.40,70.71 L 25.15,70.69 L 24.91,70.67 L 24.67,70.63 L 24.42,70.59 L 24.18,70.54 L 23.94,70.47 L 23.69,70.40 L 23.45,70.33 L 23.21,70.24 L 22.98,70.14 L 22.74,70.03 L 22.51,69.92 L 22.28,69.79 L 22.05,69.66 L 21.83,69.52 L 21.61,69.37 L 21.39,69.21 L 21.18,69.04 L 20.98,68.87 L 20.78,68.68 L 20.58,68.49 L 20.40,68.29 L 20.21,68.08 L 20.04,67.87 L 19.87,67.64 L 19.71,67.41 L 19.55,67.18 L 19.40,66.93 L 19.27,66.68 L 19.14,66.43 L 19.01,66.17 L 18.90,65.90 L 18.80,65.63 L 18.70,65.35 L 18.61,65.07 L 18.54,64.78 L 18.47,64.49 L 18.42,64.20 L 18.37,63.90 L 18.33,63.60 L 18.31,63.30 L 18.29,62.99 L 18.29,62.69 L 18.30,62.38 L 18.31,62.07 L 18.34,61.76 L 18.38,61.45 L 18.43,61.14 L 18.50,60.83 L 18.57,60.52 L 18.65,60.21 L 18.75,59.90 L 18.86,59.60 L 18.98,59.30 L 19.11,59.00 L 19.25,58.71 L 19.40,58.42 L 19.56,58.13 L 19.73,57.85 L 19.92,57.57 L 20.11,57.30 L 20.32,57.03 L 20.53,56.77 L 20.76,56.52 L 20.99,56.27 L 21.24,56.03 L 21.49,55.80 L 21.75,55.58 L 22.03,55.36 L 22.31,55.16 L 22.60,54.96 L 22.89,54.77 L 23.20,54.60 L 23.51,54.43 L 23.83,54.27 L 24.15,54.12 L 24.49,53.99 L 24.82,53.86 L 25.17,53.75 L 25.52,53.65 L 25.87,53.56 L 26.23,53.48 L 26.59,53.42 L 26.96,53.37 L 27.32,53.33 L 27.70,53.30 L 28.07,53.29 L 28.44,53.28 L 28.82,53.30 L 29.20,53.32 L 29.58,53.36 L 29.96,53.41 L 30.33,53.48 L 30.71,53.56 L 31.08,53.65 L 31.46,53.76 L 31.83,53.88 L 32.19,54.01 L 32.56,54.16 L 32.92,54.32 L 33.27,54.49 L 33.62,54.68 L 33.97,54.88 L 34.31,55.09 L 34.64,55.31 L 34.97,55.55 L 35.29,55.80 L 35.60,56.06 L 35.90,56.33 L 36.19,56.62 L 36.48,56.91 L 36.76,57.22 L 37.02,57.54 L 37.28,57.86 L 37.52,58.20 L 37.76,58.55 L 37.98,58.90 L 38.19,59.27 L 38.39,59.64 L 38.57,60.02 L 38.75,60.41 L 38.91,60.81 L 39.05,61.21 L 39.18,61.62 L 39.30,62.04 L 39.41,62.46 L 39.50,62.88 L 39.57,63.31 L 39.63,63.75 L 39.68,64.19 L 39.71,64.63 L 39.73,65.07 L 39.72,65.51 L 39.71,65.96 L 39.68,66.40 L 39.63,66.85 L 39.57,67.30 L 39.49,67.74 L 39.39,68.19 L 39.28,68.63 L 39.16,69.07 L 39.02,69.50 L 38.86,69.93 L 38.69,70.36 L 38.50,70.78 L 38.29,71.20 L 38.07,71.61 L 37.84,72.02 L 37.59,72.41 L 37.33,72.80 L 37.05,73.18 L 36.76,73.56 L 36.45,73.92 L 36.14,74.28 L 35.80,74.62 L 35.46,74.95 L 35.10,75.27 L 34.73,75.58 L 34.35,75.88 L 33.96,76.17 L 33.55,76.44 L 33.14,76.70 L 32.71,76.94 L 32.28,77.18 L 31.84,77.39 L 31.39,77.59 L 30.93,77.78 L 30.46,77.95 L 29.98,78.10 L 29.50,78.24 L 29.01,78.37 L 28.52,78.47 L 28.02,78.56 L 27.52,78.63 L 27.02,78.68 L 26.51,78.72 L 26.00,78.74 L 25.48,78.74 L 24.97,78.72 L 24.45,78.69 L 23.94,78.63 L 23.42,78.56 L 22.91,78.47 L 22.40,78.37 L 21.89,78.24 L 21.38,78.10 L 20.88,77.93 L 20.39,77.75 L 19.89,77.56 L 19.41,77.34 L 18.93,77.11 L 18.46,76.86 L 17.99,76.59 L 17.53,76.31 L 17.09,76.01 L 16.65,75.69 L 16.22,75.36 L 15.80,75.01 L 15.39,74.65 L 15.00,74.27 L 14.62,73.88 L 14.25,73.47 L 13.89,73.05 L 13.55,72.62 L 13.22,72.17 L 12.91,71.71 L 12.61,71.24 L 12.33,70.75 L 12.06,70.26 L 11.81,69.76 L 11.58,69.24 L 11.37,68.72 L 11.17,68.19 L 10.99,67.65 L 10.83,67.10 L 10.69,66.55 L 10.57,65.99 L 10.46,65.42 L 10.38,64.85 L 10.32,64.28 L 10.27,63.70 L 10.25,63.12 L 10.24,62.54 L 10.26,61.96 L 10.30,61.37 L 10.35,60.79 L 10.43,60.21 L 10.53,59.62 L 10.65,59.04 L 10.79,58.47 L 10.95,57.90 L 11.13,57.33 L 11.33,56.76 L 11.54,56.21 L 11.78,55.66 L 12.04,55.11 L 12.32,54.58 L 12.62,54.05 L 12.94,53.53 L 13.27,53.03 L 13.63,52.53 L 14.00,52.04 L 14.39,51.57 L 14.79,51.11 L 15.22,50.66 L 15.66,50.23 L 16.11,49.81 L 16.58,49.40 L 17.07,49.02 L 17.57,48.64 L 18.08,48.29 L 18.61,47.95 L 19.15,47.63 L 19.70,47.33 L 20.27,47.04 L 20.84,46.78 L 21.43,46.54 L 22.02,46.31 L 22.62,46.11 L 23.24,45.92 L 23.86,45.76 L 24.48,45.62 L 25.11,45.50 L 25.75,45.40 L 26.39,45.32 L 27.04,45.27 L 27.69,45.24 L 28.34,45.23 L 28.99,45.24 L 29.64,45.27 L 30.30,45.33 L 30.95,45.42" fill="none" stroke="url(#g)" stroke-width="4.8" stroke-linecap="round" stroke-linejoin="round"/>
  <path d="M 74.04,63.40 L 74.10,63.42 L 74.16,63.43 L 74.22,63.46 L 74.28,63.48 L 74.34,63.51 L 74.39,63.54 L 74.45,63.58 L 74.51,63.62 L 74.56,63.66 L 74.62,63.71 L 74.67,63.76 L 74.72,63.81 L 74.77,63.87 L 74.82,63.93 L 74.87,63.99 L 74.91,64.06 L 74.95,64.12 L 74.99,64.20 L 75.03,64.27 L 75.06,64.35 L 75.09,64.43 L 75.12,64.51 L 75.14,64.60 L 75.16,64.68 L 75.18,64.77 L 75.19,64.86 L 75.20,64.96 L 75.21,65.05 L 75.21,65.15 L 75.21,65.24 L 75.20,65.34 L 75.19,65.44 L 75.18,65.54 L 75.16,65.64 L 75.13,65.75 L 75.11,65.85 L 75.07,65.95 L 75.04,66.05 L 74.99,66.15 L 74.95,66.26 L 74.90,66.36 L 74.84,66.46 L 74.78,66.55 L 74.71,66.65 L 74.64,66.75 L 74.57,66.84 L 74.49,66.93 L 74.41,67.02 L 74.32,67.11 L 74.23,67.20 L 74.13,67.28 L 74.03,67.36 L 73.92,67.44 L 73.82,67.51 L 73.70,67.58 L 73.59,67.65 L 73.46,67.71 L 73.34,67.77 L 73.21,67.82 L 73.08,67.87 L 72.95,67.91 L 72.81,67.95 L 72.67,67.99 L 72.53,68.02 L 72.38,68.05 L 72.23,68.07 L 72.08,68.08 L 71.93,68.09 L 71.78,68.09 L 71.62,68.09 L 71.47,68.08 L 71.31,68.07 L 71.15,68.05 L 70.99,68.02 L 70.83,67.99 L 70.68,67.95 L 70.52,67.90 L 70.36,67.85 L 70.20,67.79 L 70.04,67.73 L 69.89,67.66 L 69.73,67.58 L 69.58,67.50 L 69.43,67.41 L 69.28,67.31 L 69.13,67.21 L 68.99,67.10 L 68.85,66.99 L 68.71,66.87 L 68.58,66.74 L 68.45,66.61 L 68.32,66.47 L 68.20,66.33 L 68.08,66.18 L 67.96,66.02 L 67.86,65.86 L 67.75,65.70 L 67.65,65.53 L 67.56,65.35 L 67.47,65.17 L 67.39,64.99 L 67.32,64.80 L 67.25,64.61 L 67.19,64.41 L 67.13,64.22 L 67.08,64.01 L 67.04,63.81 L 67.01,63.60 L 66.98,63.39 L 66.96,63.17 L 66.95,62.96 L 66.95,62.74 L 66.95,62.52 L 66.96,62.30 L 66.98,62.08 L 67.01,61.86 L 67.05,61.64 L 67.09,61.41 L 67.14,61.19 L 67.20,60.97 L 67.27,60.75 L 67.35,60.53 L 67.44,60.31 L 67.53,60.10 L 67.63,59.88 L 67.75,59.67 L 67.87,59.46 L 67.99,59.26 L 68.13,59.06 L 68.27,58.86 L 68.42,58.66 L 68.58,58.47 L 68.75,58.29 L 68.92,58.11 L 69.11,57.93 L 69.30,57.77 L 69.49,57.60 L 69.69,57.45 L 69.90,57.29 L 70.12,57.15 L 70.34,57.01 L 70.57,56.88 L 70.81,56.76 L 71.05,56.65 L 71.29,56.54 L 71.54,56.44 L 71.80,56.35 L 72.06,56.27 L 72.32,56.20 L 72.59,56.14 L 72.86,56.08 L 73.13,56.04 L 73.41,56.00 L 73.69,55.98 L 73.97,55.96 L 74.26,55.96 L 74.54,55.96 L 74.83,55.97 L 75.12,56.00 L 75.40,56.04 L 75.69,56.08 L 75.98,56.14 L 76.27,56.20 L 76.55,56.28 L 76.84,56.37 L 77.12,56.47 L 77.40,56.58 L 77.68,56.69 L 77.95,56.82 L 78.23,56.96 L 78.49,57.11 L 78.76,57.27 L 79.02,57.44 L 79.27,57.62 L 79.52,57.81 L 79.76,58.01 L 80.00,58.22 L 80.23,58.44 L 80.45,58.67 L 80.67,58.90 L 80.88,59.15 L 81.08,59.40 L 81.28,59.66 L 81.46,59.93 L 81.64,60.21 L 81.80,60.49 L 81.96,60.78 L 82.11,61.08 L 82.25,61.39 L 82.38,61.70 L 82.49,62.01 L 82.60,62.33 L 82.70,62.66 L 82.78,62.99 L 82.85,63.33 L 82.92,63.67 L 82.97,64.01 L 83.00,64.36 L 83.03,64.70 L 83.04,65.06 L 83.05,65.41 L 83.04,65.76 L 83.01,66.12 L 82.98,66.47 L 82.93,66.83 L 82.87,67.18 L 82.79,67.54 L 82.71,67.89 L 82.61,68.24 L 82.49,68.59 L 82.37,68.94 L 82.23,69.28 L 82.08,69.62 L 81.92,69.95 L 81.74,70.28 L 81.56,70.61 L 81.36,70.93 L 81.15,71.24 L 80.92,71.55 L 80.69,71.85 L 80.44,72.15 L 80.19,72.43 L 79.92,72.71 L 79.64,72.98 L 79.35,73.24 L 79.05,73.49 L 78.74,73.73 L 78.42,73.97 L 78.10,74.19 L 77.76,74.40 L 77.42,74.60 L 77.06,74.78 L 76.70,74.96 L 76.33,75.12 L 75.96,75.28 L 75.58,75.41 L 75.19,75.54 L 74.80,75.65 L 74.40,75.75 L 73.99,75.84 L 73.59,75.91 L 73.18,75.97 L 72.76,76.01 L 72.34,76.04 L 71.92,76.05 L 71.50,76.05 L 71.08,76.04 L 70.66,76.01 L 70.23,75.96 L 69.81,75.91 L 69.39,75.83 L 68.97,75.74 L 68.55,75.64 L 68.13,75.52 L 67.72,75.38 L 67.31,75.23 L 66.90,75.07 L 66.50,74.89 L 66.10,74.69 L 65.71,74.49 L 65.33,74.26 L 64.95,74.03 L 64.58,73.78 L 64.22,73.51 L 63.86,73.24 L 63.52,72.94 L 63.18,72.64 L 62.85,72.32 L 62.53,72.00 L 62.23,71.66 L 61.93,71.30 L 61.65,70.94 L 61.38,70.57 L 61.12,70.18 L 60.87,69.78 L 60.64,69.38 L 60.42,68.97 L 60.21,68.54 L 60.02,68.11 L 59.84,67.67 L 59.68,67.23 L 59.53,66.77 L 59.40,66.31 L 59.29,65.85 L 59.19,65.38 L 59.10,64.90 L 59.03,64.42 L 58.98,63.94 L 58.95,63.46 L 58.93,62.97 L 58.93,62.48 L 58.95,61.99 L 58.98,61.49 L 59.04,61.00 L 59.10,60.51 L 59.19,60.02 L 59.29,59.53 L 59.41,59.04 L 59.55,58.56 L 59.71,58.08 L 59.88,57.61 L 60.07,57.14 L 60.28,56.67 L 60.50,56.21 L 60.74,55.76 L 60.99,55.32 L 61.27,54.88 L 61.55,54.45 L 61.86,54.03 L 62.18,53.62 L 62.51,53.22 L 62.86,52.83 L 63.22,52.46 L 63.60,52.09 L 63.99,51.74 L 64.40,51.40 L 64.81,51.07 L 65.24,50.75 L 65.68,50.45 L 66.13,50.17 L 66.60,49.90 L 67.07,49.65 L 67.56,49.41 L 68.05,49.19 L 68.55,48.98 L 69.06,48.79 L 69.58,48.62 L 70.11,48.47 L 70.64,48.34 L 71.17,48.22 L 71.72,48.12 L 72.26,48.04 L 72.82,47.98 L 73.37,47.94 L 73.93,47.92 L 74.49,47.92 L 75.05,47.93 L 75.61,47.97 L 76.17,48.03 L 76.73,48.10 L 77.29,48.20 L 77.84,48.31 L 78.40,48.45 L 78.95,48.60 L 79.49,48.77 L 80.04,48.97 L 80.57,49.18 L 81.10,49.41 L 81.62,49.66 L 82.14,49.93 L 82.64,50.22 L 83.14,50.52 L 83.63,50.85 L 84.10,51.19 L 84.57,51.55 L 85.03,51.92 L 85.47,52.32 L 85.90,52.72 L 86.31,53.15 L 86.72,53.59 L 87.10,54.04 L 87.48,54.51 L 87.83,54.99 L 88.18,55.49 L 88.50,56.00 L 88.81,56.52 L 89.10,57.05 L 89.37,57.60 L 89.62,58.15 L 89.86,58.72 L 90.07,59.29 L 90.27,59.87 L 90.44,60.46 L 90.60,61.06 L 90.73,61.67 L 90.85,62.28 L 90.94,62.89 L 91.01,63.51 L 91.07,64.13 L 91.09,64.76 L 91.10,65.39 L 91.09,66.02 L 91.05,66.65 L 90.99,67.28 L 90.91,67.91 L 90.81,68.53 L 90.68,69.16 L 90.54,69.78 L 90.37,70.40 L 90.18,71.01 L 89.97,71.62 L 89.73,72.22 L 89.48,72.81 L 89.20,73.40 L 88.91,73.98 L 88.59,74.55 L 88.25,75.11 L 87.89,75.65 L 87.52,76.19 L 87.12,76.71" fill="none" stroke="url(#g)" stroke-width="4.8" stroke-linecap="round" stroke-linejoin="round"/>
</svg>